<?xml version="1.0" encoding="UTF-8" standalone="no"?>
<svg
  xmlns:dc="http://purl.org/dc/elements/1.1/"
  xmlns:cc="http://creativecommons.org/ns#"
  xmlns:rdf="http://www.w3.org/1999/02/22-rdf-syntax-ns#"
  xmlns:svg="http://www.w3.org/2000/svg"
  xmlns="http://www.w3.org/2000/svg"
  xmlns:sodipodi="http://sodipodi.sourceforge.net/DTD/sodipodi-0.dtd"
  xmlns:inkscape="http://www.inkscape.org/namespaces/inkscape"
  sodipodi:docname="drawing.svg"
  inkscape:version="1.0 (4035a4fb49, 2020-05-01)"
  id="svg8"
  version="1.1"
  viewBox="0 0 200 200"
  height="200mm"
  width="200mm">
  <defs
    id="defs2" />
  <sodipodi:namedview
    inkscape:window-maximized="0"
    inkscape:window-y="0"
    inkscape:window-x="26"
    inkscape:window-height="1040"
    inkscape:window-width="1274"
    showgrid="false"
    inkscape:document-rotation="0"
    inkscape:current-layer="layer1"
    inkscape:document-units="mm"
    inkscape:cy="560"
    inkscape:cx="400"
    inkscape:zoom="0.35"
    inkscape:pageshadow="2"
    inkscape:pageopacity="0.0"
    borderopacity="1.0"
    bordercolor="#666666"
    pagecolor="#ffffff"
    id="base" />
  <metadata
    id="metadata5">
    <rdf:RDF>
      <cc:Work
        rdf:about="">
        <dc:format>image/svg+xml</dc:format>
        <dc:type
          rdf:resource="http://purl.org/dc/dcmitype/StillImage" />
        <dc:title></dc:title>
      </cc:Work>
    </rdf:RDF>
  </metadata>
  <g
    id="layer1"
    inkscape:groupmode="layer"
    inkscape:label="Layer 1">
    <rect id="grid_outline" fill="none" stroke="#ccc" stroke-width="1"
      x="10" y="10" width="180" height="180" />
    <line id="vert_line_1" fill="none" stroke="#ccc" stroke-width="1"
      x1="40" y1="10" x2="40" y2="190" />
    <line id="vert_line_2" fill="none" stroke="#ccc" stroke-width="1"
      x1="70" y1="10" x2="70" y2="190" />
    <line id="vert_line_3" fill="none" stroke="#ccc" stroke-width="1"
      x1="100" y1="10" x2="100" y2="190" />
    <line id="vert_line_4" fill="none" stroke="#ccc" stroke-width="1"
      x1="130" y1="10" x2="130" y2="190" />
    <line id="vert_line_5" fill="none" stroke="#ccc" stroke-width="1"
      x1="160" y1="10" x2="160" y2="190" />
    <line id="horz_line_1" fill="none" stroke="#ccc" stroke-width="1"
      x1="10" y1="40" x2="190" y2="40" />
    <line id="horz_line_2" fill="none" stroke="#ccc" stroke-width="1"
      x1="10" y1="70" x2="190" y2="70" />
    <line id="horz_line_3" fill="none" stroke="#ccc" stroke-width="1"
      x1="10" y1="100" x2="190" y2="100" />
    <line id="horz_line_4" fill="none" stroke="#ccc" stroke-width="1"
      x1="10" y1="130" x2="190" y2="130" />
    <line id="horz_line_5" fill="none" stroke="#ccc" stroke-width="1"
      x1="10" y1="160" x2="190" y2="160" />

    <path fill="#88f" stroke="#000" stroke-width="1"
      d="M 40,100 L 40,130 L 70,130" />
    <path fill="#8f8" stroke="#000" stroke-width="1"
      d="M 100,160 L 130,160 L 130,130" />
    <path fill="#88f" stroke="#000" stroke-width="1"
      d="M 160,100 L 160,70 L 130,70" />
    <path fill="#8f8" stroke="#000" stroke-width="1"
      d="M 100,40 L 70,40 L 70,70" />

    <path fill="#8f8" stroke="none"
      d="M 70,70 L 40,100 L 70,130 L 100,100" />
    <path fill="#88f" stroke="none"
      d="M 130,70 L 100,40 L70,70 L 100,100" />
    <path fill="#88f" stroke="none"
      d="M 70,130 L 100,160 L 130,130 L 100,100" />
    <path fill="#8f8" stroke="none"
      d="M 130,130 L 160,100 L 130,70 L 100,100" />

    <path fill="none" stroke="#000" stroke-width="1"
      d="M 40,100 L 100,160 L 160,100 L 100,40 Z" />
    <line fill="none" stroke="#000" stroke-width="1"
      x1="70" y1="70" x2="130" y2="130" />
    <line fill="none" stroke="#000" stroke-width="1"
      x1="130" y1="70" x2="70" y2="130" />

    <circle fill="#fff" stroke="#000" stroke-width="1"
      cx="40" cy="100" r="5" />
    <circle fill="#fff" stroke="#000" stroke-width="1"
      cx="70" cy="70" r="5" />
    <circle fill="#fff" stroke="#000" stroke-width="1"
      cx="100" cy="40" r="5" />
    <circle fill="#fff" stroke="#000" stroke-width="1"
      cx="70" cy="130" r="5" />
    <circle fill="#fff" stroke="#000" stroke-width="1"
      cx="100" cy="100" r="5" />
    <circle fill="#fff" stroke="#000" stroke-width="1"
      cx="130" cy="70" r="5" />
    <circle fill="#fff" stroke="#000" stroke-width="1"
      cx="100" cy="160" r="5" />
    <circle fill="#fff" stroke="#000" stroke-width="1"
      cx="130" cy="130" r="5" />
    <circle fill="#fff" stroke="#000" stroke-width="1"
      cx="160" cy="100" r="5" />

    <circle fill="#88f" stroke="#000" stroke-width="1"
      cx="40" cy="130" r="5" />
    <circle fill="#8f8" stroke="#000" stroke-width="1"
      cx="130" cy="160" r="5" />
    <circle fill="#88f" stroke="#000" stroke-width="1"
      cx="160" cy="70" r="5" />
    <circle fill="#8f8" stroke="#000" stroke-width="1"
      cx="70" cy="40" r="5" />
    <circle fill="#8f8" stroke="#000" stroke-width="1"
      cx="70" cy="100" r="5" />
    <circle fill="#88f" stroke="#000" stroke-width="1"
      cx="100" cy="70" r="5" />
    <circle fill="#88f" stroke="#000" stroke-width="1"
      cx="100" cy="130" r="5" />
    <circle fill="#8f8" stroke="#000" stroke-width="1"
      cx="130" cy="100" r="5" />
  </g>
</svg>
